<svg preserveAspectRatio="none" width="100%" height="100%" overflow="visible" style="display: block;" viewBox="0 0 344 390" fill="none" xmlns="http://www.w3.org/2000/svg">
<g id="Vector" opacity="0.7" filter="url(#filter0_d_0_22)">
<path d="M304.496 91.261C336.688 142.963 324.455 204.421 286.468 258.562C248.48 312.703 184.094 359.528 131.298 354.65C78.5019 349.773 37.2951 292.705 25.0619 249.782C12.8286 207.347 30.2127 178.57 50.8161 131.745C72.0634 85.4079 95.8861 20.5362 146.107 8.82998C196.328 -2.38844 272.303 39.5587 304.496 91.261Z" fill="url(#paint0_linear_0_22)"/>
<path d="M304.496 91.261C336.688 142.963 324.455 204.421 286.468 258.562C248.48 312.703 184.094 359.528 131.298 354.65C78.5019 349.773 37.2951 292.705 25.0619 249.782C12.8286 207.347 30.2127 178.57 50.8161 131.745C72.0634 85.4079 95.8861 20.5362 146.107 8.82998C196.328 -2.38844 272.303 39.5587 304.496 91.261Z" stroke="url(#paint1_linear_0_22)"/>
</g>
<defs>
<filter id="filter0_d_0_22" x="-1.60038e-07" y="1.38836e-07" width="344" height="390" filterUnits="userSpaceOnUse" color-interpolation-filters="sRGB">
<feFlood flood-opacity="0" result="BackgroundImageFix"/>
<feColorMatrix in="SourceAlpha" type="matrix" values="0 0 0 0 0 0 0 0 0 0 0 0 0 0 0 0 0 0 127 0" result="hardAlpha"/>
<feOffset dy="14"/>
<feGaussianBlur stdDeviation="10.5"/>
<feComposite in2="hardAlpha" operator="out"/>
<feColorMatrix type="matrix" values="0 0 0 0 0 0 0 0 0 0 0 0 0 0 0 0 0 0 0.25 0"/>
<feBlend mode="normal" in2="BackgroundImageFix" result="effect1_dropShadow_0_22"/>
<feBlend mode="normal" in="SourceGraphic" in2="effect1_dropShadow_0_22" result="shape"/>
</filter>
<linearGradient id="paint0_linear_0_22" x1="21" y1="355" x2="365.532" y2="56.0099" gradientUnits="userSpaceOnUse">
<stop stop-color="white"/>
<stop offset="1" stop-color="#F5F5F5"/>
</linearGradient>
<linearGradient id="paint1_linear_0_22" x1="21" y1="355" x2="365.532" y2="56.0099" gradientUnits="userSpaceOnUse">
<stop/>
<stop offset="1"/>
</linearGradient>
</defs>
</svg>
