<svg preserveAspectRatio="none" width="100%" height="100%" overflow="visible" style="display: block;" viewBox="0 0 299.789 421.062" fill="none" xmlns="http://www.w3.org/2000/svg">
<g id="Vector" opacity="0.7" filter="url(#filter0_d_0_16)">
<path d="M264.773 171.708C292.071 259.591 277.104 329.956 240.5 363C203.896 396.044 145.035 391.767 89.1979 339.037C33.9816 286.307 9.78573 213.892 25.9163 142.883C42.0469 71.8734 99.1244 2.27019 148.137 5.08244C197.149 7.89469 238.096 83.8254 264.773 171.708Z" fill="url(#paint0_linear_0_16)"/>
<path d="M264.773 171.708C292.071 259.591 277.104 329.956 240.5 363C203.896 396.044 145.035 391.767 89.1979 339.037C33.9816 286.307 9.78573 213.892 25.9163 142.883C42.0469 71.8734 99.1244 2.27019 148.137 5.08244C197.149 7.89469 238.096 83.8254 264.773 171.708Z" stroke="url(#paint1_linear_0_16)"/>
</g>
<defs>
<filter id="filter0_d_0_16" x="-1.9963e-07" y="2.44127e-09" width="299.789" height="421.062" filterUnits="userSpaceOnUse" color-interpolation-filters="sRGB">
<feFlood flood-opacity="0" result="BackgroundImageFix"/>
<feColorMatrix in="SourceAlpha" type="matrix" values="0 0 0 0 0 0 0 0 0 0 0 0 0 0 0 0 0 0 127 0" result="hardAlpha"/>
<feOffset dy="16"/>
<feGaussianBlur stdDeviation="10.5"/>
<feComposite in2="hardAlpha" operator="out"/>
<feColorMatrix type="matrix" values="0 0 0 0 0 0 0 0 0 0 0 0 0 0 0 0 0 0 0.25 0"/>
<feBlend mode="normal" in2="BackgroundImageFix" result="effect1_dropShadow_0_16"/>
<feBlend mode="normal" in="SourceGraphic" in2="effect1_dropShadow_0_16" result="shape"/>
</filter>
<linearGradient id="paint0_linear_0_16" x1="21" y1="405" x2="391.975" y2="154.592" gradientUnits="userSpaceOnUse">
<stop stop-color="white"/>
<stop offset="1" stop-color="#EBEBEB"/>
</linearGradient>
<linearGradient id="paint1_linear_0_16" x1="21" y1="405" x2="391.975" y2="154.592" gradientUnits="userSpaceOnUse">
<stop/>
<stop offset="1"/>
</linearGradient>
</defs>
</svg>
