<svg preserveAspectRatio="none" width="100%" height="100%" overflow="visible" style="display: block;" viewBox="0 0 769 606" fill="none" xmlns="http://www.w3.org/2000/svg">
<g id="sw-js-blob-svg">
<g id="Vector" opacity="0.5" filter="url(#filter0_d_0_14)">
<path d="M513.841 21.7882C544.827 40.3851 554.255 84.4336 559.396 116.705C565.185 148.741 566.859 169.471 562.454 187.612C558.049 205.753 546.441 222.248 550.762 254.285C554.265 286.086 573.869 333.899 558.485 358.17C543.274 382.912 492.426 384.347 450.613 380.361C409.277 375.667 376.155 365.316 335.257 357.796C294.531 350.746 245.857 346.056 247.423 324.147C248.989 302.237 301.271 262.403 329.957 234.357C358.167 207.018 362.61 190.997 365.759 157.308C369.557 123.384 372.537 71.0846 400.538 41.1544C428.538 11.2243 482.378 3.89809 513.841 21.7882Z" fill="url(#paint0_linear_0_14)"/>
<path d="M513.841 21.7882C544.827 40.3851 554.255 84.4336 559.396 116.705C565.185 148.741 566.859 169.471 562.454 187.612C558.049 205.753 546.441 222.248 550.762 254.285C554.265 286.086 573.869 333.899 558.485 358.17C543.274 382.912 492.426 384.347 450.613 380.361C409.277 375.667 376.155 365.316 335.257 357.796C294.531 350.746 245.857 346.056 247.423 324.147C248.989 302.237 301.271 262.403 329.957 234.357C358.167 207.018 362.61 190.997 365.759 157.308C369.557 123.384 372.537 71.0846 400.538 41.1544C428.538 11.2243 482.378 3.89809 513.841 21.7882Z" stroke="url(#paint1_linear_0_14)"/>
</g>
</g>
<defs>
<filter id="filter0_d_0_14" x="226.386" y="6.14892" width="359.564" height="411.908" filterUnits="userSpaceOnUse" color-interpolation-filters="sRGB">
<feFlood flood-opacity="0" result="BackgroundImageFix"/>
<feColorMatrix in="SourceAlpha" type="matrix" values="0 0 0 0 0 0 0 0 0 0 0 0 0 0 0 0 0 0 127 0" result="hardAlpha"/>
<feOffset dy="15"/>
<feGaussianBlur stdDeviation="10.5"/>
<feComposite in2="hardAlpha" operator="out"/>
<feColorMatrix type="matrix" values="0 0 0 0 0 0 0 0 0 0 0 0 0 0 0 0 0 0 0.25 0"/>
<feBlend mode="normal" in2="BackgroundImageFix" result="effect1_dropShadow_0_14"/>
<feBlend mode="normal" in="SourceGraphic" in2="effect1_dropShadow_0_14" result="shape"/>
</filter>
<linearGradient id="paint0_linear_0_14" x1="470.674" y1="398.55" x2="344.512" y2="51.9237" gradientUnits="userSpaceOnUse">
<stop stop-color="#72A4DC"/>
<stop offset="0.788462" stop-color="#2C5D93"/>
</linearGradient>
<linearGradient id="paint1_linear_0_14" x1="296.347" y1="462" x2="516.071" y2="-12.8065" gradientUnits="userSpaceOnUse">
<stop/>
<stop offset="1"/>
</linearGradient>
</defs>
</svg>
